G04 Layer: TopSilkscreenLayer*
G04 EasyEDA Pro v2.2.40.8, 2025-10-17 12:33:29*
G04 Gerber Generator version 0.3*
G04 Scale: 100 percent, Rotated: No, Reflected: No*
G04 Dimensions in millimeters*
G04 Leading zeros omitted, absolute positions, 4 integers and 5 decimals*
G04 Generated by one-click*
%FSLAX45Y45*%
%MOMM*%
%ADD10C,0.203*%
%ADD11C,0.1524*%
%ADD12C,0.254*%
%ADD13C,0.15199*%
%ADD14C,0.0762*%
%ADD15C,0.2996*%
G75*


G04 Text Start*
G54D10*
G01X1839214Y988060D02*
G01X1895348Y1033018D01*
G01X1957070Y1033018D01*
G01X1839214Y1077976D02*
G01X1895348Y1033018D01*
G01X1851914Y48260D02*
G01X1969770Y48260D01*
G01X1851914Y48260D02*
G01X1851914Y98806D01*
G01X1857502Y115570D01*
G01X1863090Y121158D01*
G01X1874266Y126746D01*
G01X1885696Y126746D01*
G01X1896872Y121158D01*
G01X1902460Y115570D01*
G01X1908048Y98806D01*
G01X1908048Y48260D02*
G01X1908048Y98806D01*
G01X1913636Y115570D01*
G01X1919224Y121158D01*
G01X1930654Y126746D01*
G01X1947418Y126746D01*
G01X1958594Y121158D01*
G01X1964182Y115570D01*
G01X1969770Y98806D01*
G01X1969770Y48260D01*
G01X394208Y589788D02*
G01X382778Y583946D01*
G01X371602Y572770D01*
G01X366014Y561594D01*
G01X366014Y539242D01*
G01X371602Y527812D01*
G01X382778Y516636D01*
G01X394208Y511048D01*
G01X410972Y505460D01*
G01X438912Y505460D01*
G01X455930Y511048D01*
G01X467106Y516636D01*
G01X478282Y527812D01*
G01X483870Y539242D01*
G01X483870Y561594D01*
G01X478282Y572770D01*
G01X467106Y583946D01*
G01X455930Y589788D01*
G01X438912Y589788D01*
G01X438912Y561594D02*
G01X438912Y589788D01*
G01X366014Y637032D02*
G01X483870Y637032D01*
G01X366014Y637032D02*
G01X483870Y715772D01*
G01X366014Y715772D02*
G01X483870Y715772D01*
G01X366014Y763016D02*
G01X483870Y763016D01*
G01X366014Y763016D02*
G01X366014Y802386D01*
G01X371602Y819150D01*
G01X382778Y830326D01*
G01X394208Y835914D01*
G01X410972Y841756D01*
G01X438912Y841756D01*
G01X455930Y835914D01*
G01X467106Y830326D01*
G01X478282Y819150D01*
G01X483870Y802386D01*
G01X483870Y763016D01*
G01X162560Y192786D02*
G01X190754Y74930D01*
G01X218694Y192786D02*
G01X190754Y74930D01*
G01X218694Y192786D02*
G01X246888Y74930D01*
G01X274828Y192786D02*
G01X246888Y74930D01*
G54D11*
G01X1476502Y269240D02*
G01X1473454Y275590D01*
G01X1467104Y281686D01*
G01X1461008Y284734D01*
G01X1448562Y284734D01*
G01X1442466Y281686D01*
G01X1436116Y275590D01*
G01X1433068Y269240D01*
G01X1430020Y260096D01*
G01X1430020Y244602D01*
G01X1433068Y235204D01*
G01X1436116Y229108D01*
G01X1442466Y222758D01*
G01X1448562Y219710D01*
G01X1461008Y219710D01*
G01X1467104Y222758D01*
G01X1473454Y229108D01*
G01X1476502Y235204D01*
G01X1512824Y284734D02*
G01X1546860Y284734D01*
G01X1528318Y260096D01*
G01X1537462Y260096D01*
G01X1543812Y257048D01*
G01X1546860Y253746D01*
G01X1549908Y244602D01*
G01X1549908Y238252D01*
G01X1546860Y229108D01*
G01X1540764Y222758D01*
G01X1531366Y219710D01*
G01X1521968Y219710D01*
G01X1512824Y222758D01*
G01X1509776Y226060D01*
G01X1506728Y232156D01*
G01X1045464Y979678D02*
G01X1042416Y986028D01*
G01X1036066Y992124D01*
G01X1029970Y995172D01*
G01X1017524Y995172D01*
G01X1011428Y992124D01*
G01X1005078Y986028D01*
G01X1002030Y979678D01*
G01X998982Y970534D01*
G01X998982Y955040D01*
G01X1002030Y945642D01*
G01X1005078Y939546D01*
G01X1011428Y933196D01*
G01X1017524Y930148D01*
G01X1029970Y930148D01*
G01X1036066Y933196D01*
G01X1042416Y939546D01*
G01X1045464Y945642D01*
G01X1106424Y995172D02*
G01X1075690Y951992D01*
G01X1121918Y951992D01*
G01X1106424Y995172D02*
G01X1106424Y930148D01*
G01X1224280Y83566D02*
G01X1224280Y148590D01*
G01X1224280Y83566D02*
G01X1202690Y83566D01*
G01X1193292Y86614D01*
G01X1187196Y92710D01*
G01X1184148Y99060D01*
G01X1180846Y108204D01*
G01X1180846Y123698D01*
G01X1184148Y133096D01*
G01X1187196Y139192D01*
G01X1193292Y145542D01*
G01X1202690Y148590D01*
G01X1224280Y148590D01*
G01X1150620Y96012D02*
G01X1144524Y92710D01*
G01X1135380Y83566D01*
G01X1135380Y148590D01*
G01X622734Y841400D02*
G01X616638Y838352D01*
G01X610288Y832256D01*
G01X607240Y825906D01*
G01X604192Y816762D01*
G01X604192Y801268D01*
G01X607240Y791870D01*
G01X610288Y785774D01*
G01X616638Y779424D01*
G01X622734Y776376D01*
G01X635180Y776376D01*
G01X641276Y779424D01*
G01X647626Y785774D01*
G01X650674Y791870D01*
G01X653722Y801268D01*
G01X653722Y816762D01*
G01X650674Y825906D01*
G01X647626Y832256D01*
G01X641276Y838352D01*
G01X635180Y841400D01*
G01X622734Y841400D01*
G01X632132Y788822D02*
G01X650674Y770280D01*
G01X683948Y828954D02*
G01X690044Y832256D01*
G01X699188Y841400D01*
G01X699188Y776376D01*
G01X1620520Y945134D02*
G01X1620520Y880110D01*
G01X1620520Y945134D02*
G01X1648460Y945134D01*
G01X1657604Y942086D01*
G01X1660652Y939038D01*
G01X1663954Y932688D01*
G01X1663954Y926592D01*
G01X1660652Y920496D01*
G01X1657604Y917448D01*
G01X1648460Y914146D01*
G01X1620520Y914146D01*
G01X1642110Y914146D02*
G01X1663954Y880110D01*
G01X1700276Y945134D02*
G01X1734312Y945134D01*
G01X1715770Y920496D01*
G01X1724914Y920496D01*
G01X1731264Y917448D01*
G01X1734312Y914146D01*
G01X1737360Y905002D01*
G01X1737360Y898652D01*
G01X1734312Y889508D01*
G01X1728216Y883158D01*
G01X1718818Y880110D01*
G01X1709420Y880110D01*
G01X1700276Y883158D01*
G01X1697228Y886460D01*
G01X1694180Y892556D01*
G01X1597406Y269748D02*
G01X1597406Y204724D01*
G01X1597406Y269748D02*
G01X1625346Y269748D01*
G01X1634490Y266700D01*
G01X1637538Y263652D01*
G01X1640840Y257302D01*
G01X1640840Y251206D01*
G01X1637538Y245110D01*
G01X1634490Y242062D01*
G01X1625346Y238760D01*
G01X1597406Y238760D01*
G01X1618996Y238760D02*
G01X1640840Y204724D01*
G01X1701800Y269748D02*
G01X1671066Y226568D01*
G01X1717294Y226568D01*
G01X1701800Y269748D02*
G01X1701800Y204724D01*
G01X528066Y960120D02*
G01X593090Y960120D01*
G01X528066Y960120D02*
G01X528066Y1000252D01*
G01X559054Y960120D02*
G01X559054Y985012D01*
G01X543560Y1033526D02*
G01X540512Y1033526D01*
G01X534162Y1036574D01*
G01X531114Y1039622D01*
G01X528066Y1045718D01*
G01X528066Y1058164D01*
G01X531114Y1064514D01*
G01X534162Y1067562D01*
G01X540512Y1070610D01*
G01X546608Y1070610D01*
G01X552704Y1067562D01*
G01X562102Y1061212D01*
G01X593090Y1030478D01*
G01X593090Y1073658D01*
G04 Text End*

G04 PolygonModel Start*
G54D12*
G01X1569557Y441881D02*
G01X1569557Y361884D01*
G01X1569603Y497926D02*
G01X1569603Y577924D01*
G01X1427589Y441881D02*
G01X1427589Y361884D01*
G01X1427637Y497926D02*
G01X1427637Y577924D01*
G01X1538575Y330909D02*
G01X1458570Y330909D01*
G01X1458623Y608902D02*
G01X1538625Y608902D01*
G01X1427637Y577919D02*
G02X1458623Y608902I30983J0D01*
G01X1538620Y608902D02*
G02X1569603Y577919I0J-30983D01*
G01X1569557Y361889D02*
G02X1538575Y330909I-30983J3D01*
G01X1458577Y330909D02*
G02X1427589Y361889I-5J30983D01*
G01X1310719Y1010757D02*
G01X1390716Y1010757D01*
G01X1254674Y1010803D02*
G01X1174676Y1010803D01*
G01X1310719Y868789D02*
G01X1390716Y868789D01*
G01X1254674Y868837D02*
G01X1174676Y868837D01*
G01X1421691Y979775D02*
G01X1421691Y899770D01*
G01X1143699Y899823D02*
G01X1143699Y979825D01*
G01X1174681Y868837D02*
G02X1143699Y899823I0J30983D01*
G01X1143699Y979820D02*
G02X1174681Y1010803I30983J0D01*
G01X1390711Y1010757D02*
G02X1421691Y979775I-3J-30983D01*
G01X1421691Y899777D02*
G02X1390711Y868789I-30983J-5D01*
G54D13*
G01X1017224Y41679D02*
G01X1017224Y62301D01*
G01X1017224Y186921D02*
G01X1017224Y167300D01*
G54D11*
G01X841980Y186921D02*
G01X1017224Y186921D01*
G01X841980Y41679D02*
G01X1017224Y41679D01*
G01X882424Y186921D02*
G01X882424Y41679D01*
G36*
G01X849602Y194541D02*
G01X849602Y159301D01*
G01X819122Y159301D01*
G01X819122Y194541D01*
G01X849602Y194541D01*
G37*
G36*
G01X849602Y34059D02*
G01X849602Y69299D01*
G01X819122Y69299D01*
G01X819122Y34059D01*
G01X849602Y34059D01*
G37*
G01X795769Y216545D02*
G01X795769Y896788D01*
G01X795769Y896788D02*
G01X1075047Y896788D01*
G01X1075047Y896788D02*
G01X1075047Y216545D01*
G01X1075047Y216545D02*
G01X795769Y216545D01*
G01X1544879Y853460D02*
G01X1448991Y853460D01*
G01X1448991Y853460D02*
G01X1448991Y721340D01*
G01X1448991Y721340D02*
G01X1544879Y721340D01*
G01X1630121Y853460D02*
G01X1726009Y853460D01*
G01X1726009Y853460D02*
G01X1726009Y721340D01*
G01X1726009Y721340D02*
G01X1630121Y721340D01*
G01X1742460Y512521D02*
G01X1742460Y608409D01*
G01X1742460Y608409D02*
G01X1610340Y608409D01*
G01X1610340Y608409D02*
G01X1610340Y512521D01*
G01X1742460Y427279D02*
G01X1742460Y331391D01*
G01X1742460Y331391D02*
G01X1610340Y331391D01*
G01X1610340Y331391D02*
G01X1610340Y427279D01*
G01X453481Y1099861D02*
G01X334470Y1099861D01*
G01X638721Y1099861D02*
G01X757730Y1099861D01*
G01X319230Y1084621D02*
G01X319230Y896579D01*
G01X772970Y1084621D02*
G01X772970Y896579D01*
G01X334470Y881339D02*
G01X453481Y881339D01*
G01X757730Y881339D02*
G01X638721Y881339D01*
G54D14*
G01X546100Y990600D02*
G02X546100Y1075095I73175J42247D01*
G01X546100Y990600D02*
G02X546100Y906105I-73175J-42247D01*

M02*

