G04 Layer: BottomLayer*
G04 EasyEDA Pro v2.2.40.8, 2025-10-17 12:33:29*
G04 Gerber Generator version 0.3*
G04 Scale: 100 percent, Rotated: No, Reflected: No*
G04 Dimensions in millimeters*
G04 Leading zeros omitted, absolute positions, 4 integers and 5 decimals*
G04 Generated by one-click*
%FSLAX45Y45*%
%MOMM*%
%ADD10C,0.2032*%
%ADD11C,0.61*%
%ADD12C,0.5*%
%ADD13C,0.3908*%
G75*


G04 Copper Start*
G36*
G01X35814Y943000D02*
G01X37835Y968684D01*
G01X43850Y993736D01*
G01X53709Y1017539D01*
G01X67171Y1039506D01*
G01X83903Y1059097D01*
G01X103494Y1075829D01*
G01X125461Y1089291D01*
G01X149264Y1099150D01*
G01X174316Y1105165D01*
G01X200000Y1107186D01*
G01X1933600Y1107186D01*
G01X1959284Y1105165D01*
G01X1984336Y1099150D01*
G01X2008139Y1089291D01*
G01X2030106Y1075829D01*
G01X2049697Y1059097D01*
G01X2066429Y1039506D01*
G01X2079891Y1017539D01*
G01X2089750Y993736D01*
G01X2095765Y968684D01*
G01X2097786Y943000D01*
G01X2097786Y200000D01*
G01X2095765Y174316D01*
G01X2089750Y149264D01*
G01X2079891Y125461D01*
G01X2066429Y103494D01*
G01X2049697Y83903D01*
G01X2030106Y67171D01*
G01X2008139Y53709D01*
G01X1984336Y43850D01*
G01X1959284Y37835D01*
G01X1933600Y35814D01*
G01X200000Y35814D01*
G01X174316Y37835D01*
G01X149264Y43850D01*
G01X125461Y53709D01*
G01X103494Y67171D01*
G01X83903Y83903D01*
G01X67171Y103494D01*
G01X53709Y125461D01*
G01X43850Y149264D01*
G01X37835Y174316D01*
G01X35814Y200000D01*
G01X35814Y475535D01*
G01X118076Y475535D01*
G01X118710Y459169D01*
G01X123336Y443457D01*
G01X123336Y374650D01*
G01X124505Y362786D01*
G01X127965Y351378D01*
G01X133585Y340864D01*
G01X141148Y331648D01*
G01X210998Y261798D01*
G01X220214Y254235D01*
G01X230728Y248615D01*
G01X242136Y245155D01*
G01X254000Y243986D01*
G01X355810Y243986D01*
G01X464998Y134798D01*
G01X464998Y134798D01*
G01X474214Y127235D01*
G01X484728Y121615D01*
G01X496136Y118155D01*
G01X508000Y116986D01*
G01X1574800Y116986D01*
G01X1586664Y118155D01*
G01X1598072Y121615D01*
G01X1608586Y127235D01*
G01X1617802Y134798D01*
G01X1840404Y357400D01*
G01X1854785Y365239D01*
G01X1866806Y376363D01*
G01X1875734Y390095D01*
G01X1881024Y405596D01*
G01X1882354Y421920D01*
G01X1879642Y438073D01*
G01X1873054Y453068D01*
G01X1862991Y465991D01*
G01X1850068Y476054D01*
G01X1835073Y482642D01*
G01X1818920Y485354D01*
G01X1802596Y484024D01*
G01X1787095Y478734D01*
G01X1773363Y469806D01*
G01X1762239Y457785D01*
G01X1754400Y443404D01*
G01X1549610Y238614D01*
G01X533190Y238614D01*
G01X450770Y321034D01*
G01X924526Y321034D01*
G01X927922Y305011D01*
G01X935142Y290310D01*
G01X945746Y277826D01*
G01X959085Y268323D01*
G01X974347Y262378D01*
G01X990600Y260355D01*
G01X1006853Y262378D01*
G01X1022115Y268323D01*
G01X1035454Y277826D01*
G01X1046058Y290310D01*
G01X1053278Y305011D01*
G01X1056674Y321034D01*
G01X1056040Y337400D01*
G01X1051414Y353112D01*
G01X1051414Y444710D01*
G01X1218990Y612286D01*
G01X1649957Y612286D01*
G01X1665669Y607660D01*
G01X1682035Y607026D01*
G01X1698058Y610422D01*
G01X1712760Y617642D01*
G01X1725243Y628246D01*
G01X1734747Y641585D01*
G01X1740691Y656847D01*
G01X1742714Y673100D01*
G01X1742714Y673100D01*
G01X1740691Y689353D01*
G01X1734747Y704615D01*
G01X1725243Y717954D01*
G01X1712760Y728558D01*
G01X1698058Y735778D01*
G01X1682035Y739174D01*
G01X1665669Y738540D01*
G01X1649957Y733914D01*
G01X1193800Y733914D01*
G01X1181936Y732745D01*
G01X1170528Y729285D01*
G01X1160014Y723665D01*
G01X1150798Y716102D01*
G01X947598Y512902D01*
G01X940035Y503686D01*
G01X934415Y493172D01*
G01X930955Y481764D01*
G01X929786Y469900D01*
G01X929786Y353112D01*
G01X925160Y337400D01*
G01X924526Y321034D01*
G01X450770Y321034D01*
G01X424002Y347802D01*
G01X414786Y355365D01*
G01X404272Y360985D01*
G01X392864Y364445D01*
G01X381000Y365614D01*
G01X279190Y365614D01*
G01X244964Y399840D01*
G01X244964Y443457D01*
G01X249590Y459169D01*
G01X250224Y475535D01*
G01X246828Y491558D01*
G01X239608Y506260D01*
G01X229004Y518743D01*
G01X215665Y528247D01*
G01X200403Y534191D01*
G01X184150Y536214D01*
G01X167897Y534191D01*
G01X152635Y528247D01*
G01X139296Y518743D01*
G01X128692Y506260D01*
G01X121472Y491558D01*
G01X118076Y475535D01*
G01X35814Y475535D01*
G01X35814Y943000D01*
G37*
G54D10*
G01X35814Y943000D02*
G02X200000Y1107186I164186J0D01*
G01X1933600Y1107186D01*
G02X2097786Y943000I0J-164186D01*
G01X2097786Y200000D01*
G02X1933600Y35814I-164186J0D01*
G01X200000Y35814D01*
G02X35814Y200000I0J164186D01*
G01X35814Y943000D01*
G01X464998Y134798D02*
G03X508000Y116986I43002J43002D01*
G01X1574800Y116986D01*
G03X1617802Y134798I0J60814D01*
G01X1840404Y357400D01*
G03X1862991Y465991I-24304J61700D01*
G03X1754400Y443404I-46891J-46891D01*
G01X1549610Y238614D01*
G01X533190Y238614D01*
G01X424002Y347802D01*
G03X381000Y365614I-43002J-43002D01*
G01X279190Y365614D01*
G01X244964Y399840D01*
G01X244964Y443457D01*
G03X184150Y536214I-60814J26443D01*
G03X123336Y443457I0J-66314D01*
G01X123336Y374650D01*
G03X141148Y331648I60814J0D01*
G01X210998Y261798D01*
G03X254000Y243986I43002J43002D01*
G01X355810Y243986D01*
G01X464998Y134798D01*
G01X1742714Y673100D02*
G03X1649957Y733914I-66314J0D01*
G01X1193800Y733914D01*
G03X1150798Y716102I0J-60814D01*
G01X947598Y512902D01*
G03X929786Y469900I43002J-43002D01*
G01X929786Y353112D01*
G03X990600Y260355I60814J-26443D01*
G03X1051414Y353112I0J66314D01*
G01X1051414Y444710D01*
G01X1218990Y612286D01*
G01X1649957Y612286D01*
G03X1742714Y673100I26443J60814D01*
G04 Copper End*

G04 Via Start*
G54D11*
G01X990600Y326669D03*
G01X1676400Y673100D03*
G01X1511300Y939800D03*
G01X457200Y812800D03*
G01X457200Y714871D03*
G01X1816100Y419100D03*
G01X184150Y469900D03*
G01X2062500Y604500D03*
G01X538500Y96500D03*
G04 Via End*

G04 Track Start*
G54D12*
G01X990600Y326669D02*
G01X990600Y469900D01*
G01X1193800Y673100D02*
G01X1676400Y673100D01*
G01X990600Y469900D02*
G01X1193800Y673100D01*
G01X508000Y177800D02*
G01X381000Y304800D01*
G01X254000Y304800D01*
G01X184150Y374650D01*
G01X184150Y469900D01*
G01X1816100Y419100D02*
G01X1574800Y177800D01*
G01X508000Y177800D01*
G04 Track End*

M02*

